<?xml version="1.0" encoding="UTF-8" standalone="no"?>
<svg
   xmlns:dc="http://purl.org/dc/elements/1.1/"
   xmlns:cc="http://creativecommons.org/ns#"
   xmlns:rdf="http://www.w3.org/1999/02/22-rdf-syntax-ns#"
   xmlns:svg="http://www.w3.org/2000/svg"
   xmlns="http://www.w3.org/2000/svg"
   xmlns:sodipodi="http://sodipodi.sourceforge.net/DTD/sodipodi-0.dtd"
   xmlns:inkscape="http://www.inkscape.org/namespaces/inkscape"
   inkscape:version="1.0 (4035a4fb49, 2020-05-01)"
   sodipodi:docname="appiconfg.svg"
   id="svg2097"
   style="fill-rule:evenodd;clip-rule:evenodd;stroke-linejoin:round;stroke-miterlimit:2;"
   xml:space="preserve"
   version="1.1"
   viewBox="0 0 456 456"
   height="456"
   width="456"><metadata
   id="metadata2103"><rdf:RDF><cc:Work
       rdf:about=""><dc:format>image/svg+xml</dc:format><dc:type
         rdf:resource="http://purl.org/dc/dcmitype/StillImage" /><dc:title></dc:title></cc:Work></rdf:RDF></metadata><defs
   id="defs2101" /><sodipodi:namedview
   inkscape:current-layer="svg2097"
   inkscape:window-maximized="1"
   inkscape:window-y="-8"
   inkscape:window-x="-8"
   inkscape:cy="228"
   inkscape:cx="228"
   inkscape:zoom="2.2105263"
   inkscape:pagecheckerboard="true"
   showgrid="false"
   id="namedview2099"
   inkscape:window-height="1387"
   inkscape:window-width="2560"
   inkscape:pageshadow="2"
   inkscape:pageopacity="0"
   guidetolerance="10"
   gridtolerance="10"
   objecttolerance="10"
   borderopacity="1"
   bordercolor="#666666"
   pagecolor="#ffffff" />
    
    
    
    
<g
   style="font-size:239.919px;line-height:1.25;font-family:'Nyght Serif';-inkscape-font-specification:'Nyght Serif';fill:#ffffff;fill-opacity:1;stroke-width:5.99797"
   id="text2668"
   transform="scale(1.009799,0.99029609)"
   aria-label="tf"><path
     id="path2687"
     style="fill:#ffffff;fill-opacity:1;stroke-width:5.99797"
     d="m 166.91256,190.55739 h -13.19555 v -2.87902 h 19.19352 q 12.47579,-3.83871 25.1915,-12.71571 12.71571,-8.87701 19.19352,-19.91328 h 1.1996 l -9.11693,32.62899 h 23.75199 v 2.87902 h -24.47174 l -20.1532,70.05635 q -1.91935,6.47782 -1.91935,11.99595 0,6.47782 2.63911,9.59676 2.63911,3.11895 6.71773,3.11895 3.8387,0 6.95765,-2.15927 3.11895,-2.39919 7.19757,-6.71773 h 2.15927 q -8.877,10.79635 -15.59473,17.99392 -6.71774,7.19757 -15.35482,12.71571 -8.63708,5.27822 -17.27417,5.27822 -9.35684,0 -15.35481,-6.95765 -5.75806,-6.95765 -5.75806,-20.63304 0,-10.55643 4.31854,-25.91125 z" /><path
     id="path2689"
     style="fill:#ffffff;fill-opacity:1;stroke-width:5.99797"
     d="m 157.34579,341.70637 q 0,-5.99798 4.07863,-10.55644 4.07862,-4.31854 10.31651,-6.95765 2.87903,11.99595 7.91733,20.63303 5.0383,8.87701 12.23587,8.87701 4.79838,0 8.877,-5.0383 3.83871,-4.79838 7.67741,-18.23385 l 40.54631,-139.87278 h -24.23182 v -2.87902 h 25.1915 q 6.71773,-19.43344 17.27417,-33.82858 10.55643,-14.63506 22.07255,-22.07255 11.51611,-7.67741 21.83263,-7.67741 7.91732,0 12.47578,4.55846 4.55846,4.31854 4.55846,11.03627 0,6.95766 -4.31854,14.39514 -17.27417,-2.87902 -31.18947,-2.87902 -27.59068,0 -27.59068,15.11489 0,5.75806 3.35886,11.75603 3.35887,5.99798 7.67741,9.59677 h 39.82656 v 2.87902 h -25.43142 l -24.47174,85.41117 q -7.19757,25.1915 -19.91328,43.42534 -12.7157,18.47376 -29.27011,28.31044 -16.55442,9.83668 -35.02818,9.83668 -12.23587,0 -18.23384,-4.55846 -6.2379,-4.31854 -6.2379,-11.27619 z" /></g></svg>
