<?xml version="1.0" encoding="UTF-8" standalone="no"?>
<svg
   xmlns:osb="http://www.openswatchbook.org/uri/2009/osb"
   xmlns:dc="http://purl.org/dc/elements/1.1/"
   xmlns:cc="http://creativecommons.org/ns#"
   xmlns:rdf="http://www.w3.org/1999/02/22-rdf-syntax-ns#"
   xmlns:svg="http://www.w3.org/2000/svg"
   xmlns="http://www.w3.org/2000/svg"
   xmlns:xlink="http://www.w3.org/1999/xlink"
   xmlns:sodipodi="http://sodipodi.sourceforge.net/DTD/sodipodi-0.dtd"
   xmlns:inkscape="http://www.inkscape.org/namespaces/inkscape"
   inkscape:version="1.0 (4035a4fb49, 2020-05-01)"
   sodipodi:docname="splash.svg"
   id="svg861"
   style="fill-rule:evenodd;clip-rule:evenodd;stroke-linejoin:round;stroke-miterlimit:2;"
   xml:space="preserve"
   version="1.1"
   viewBox="0 0 456 456"
   height="456"
   width="456"><metadata
   id="metadata867"><rdf:RDF><cc:Work
       rdf:about=""><dc:format>image/svg+xml</dc:format><dc:type
         rdf:resource="http://purl.org/dc/dcmitype/StillImage" /><dc:title></dc:title></cc:Work></rdf:RDF></metadata><defs
   id="defs865"><linearGradient
     osb:paint="solid"
     id="linearGradient1436"><stop
       id="stop1434"
       offset="0"
       style="stop-color:#ffffff;stop-opacity:1;" /></linearGradient><linearGradient
     gradientUnits="userSpaceOnUse"
     y2="231.7821"
     x2="431.28214"
     y1="231.7821"
     x1="31.97429"
     id="linearGradient1438"
     xlink:href="#linearGradient1436"
     inkscape:collect="always" /></defs><sodipodi:namedview
   inkscape:current-layer="svg861"
   inkscape:window-maximized="1"
   inkscape:window-y="-8"
   inkscape:window-x="-8"
   inkscape:cy="228"
   inkscape:cx="228"
   inkscape:zoom="2.2105263"
   inkscape:pagecheckerboard="true"
   showgrid="false"
   id="namedview863"
   inkscape:window-height="1387"
   inkscape:window-width="2560"
   inkscape:pageshadow="2"
   inkscape:pageopacity="0"
   guidetolerance="10"
   gridtolerance="10"
   objecttolerance="10"
   borderopacity="1"
   bordercolor="#666666"
   pagecolor="#ffffff" />
    
    
    
    
<g
   style="font-size:99.3987px;line-height:1.25;font-family:'Nyght Serif';-inkscape-font-specification:'Nyght Serif';fill:url(#linearGradient1438);fill-opacity:1;stroke-width:2.48498"
   id="text1432"
   aria-label="tumbfoss"><path
     id="path2670"
     style="fill:url(#linearGradient1438);fill-opacity:1;stroke-width:2.48498"
     d="m 41.914159,211.60416 h -5.466928 v -1.19278 h 7.951896 q 5.168732,-1.59038 10.436863,-5.26813 5.268131,-3.67776 7.951896,-8.2501 h 0.496993 l -3.77715,13.51823 H 69.3482 v 1.19278 H 59.209533 l -8.349491,29.02442 q -0.79519,2.68376 -0.79519,4.96993 0,2.68377 1.093386,3.97595 1.093386,1.29219 2.783164,1.29219 1.590379,0 2.882562,-0.89459 1.292183,-0.99399 2.981961,-2.78317 h 0.894588 q -3.677752,4.47295 -6.460915,7.45491 -2.783164,2.98196 -6.361517,5.26813 -3.578353,2.18677 -7.156706,2.18677 -3.876549,0 -6.361517,-2.88256 -2.385568,-2.88257 -2.385568,-8.54829 0,-4.37354 1.789176,-10.73506 z" /><path
     id="path2672"
     style="fill:url(#linearGradient1438);fill-opacity:1;stroke-width:2.48498"
     d="m 63.297303,224.1284 q 5.466928,-6.85851 9.939869,-10.83446 4.57234,-4.07535 9.343478,-4.07535 3.280157,0 5.36753,2.28617 2.087372,2.28617 2.087372,6.85851 0,4.17475 -1.789176,9.44288 l -5.665726,17.09657 q -0.496994,1.68978 -0.496994,2.48497 0,1.98798 1.789177,1.98798 2.385569,0 5.168732,-4.77114 2.783164,-4.77114 7.355504,-16.50019 l 6.858511,-17.69296 h 17.99116 l -9.14468,32.00638 q -0.89459,3.08136 -0.89459,4.96993 0,3.47896 2.38557,3.47896 1.29219,0 2.28617,-0.89459 1.09339,-0.89459 2.78317,-2.78317 h 0.89459 q -0.5964,0.6958 -4.27415,5.26814 -3.67775,4.47294 -7.4549,7.0573 -3.77715,2.58437 -7.05731,2.58437 -3.280156,0 -5.466927,-2.38557 -2.087372,-2.48497 -2.087372,-7.3555 0,-4.27415 1.49098,-9.24408 l 5.566329,-19.28335 h -0.89459 l -2.087373,5.36753 q -6.659713,17.09658 -12.623634,25.04847 -5.864524,7.8525 -12.027243,7.8525 -3.77715,0 -6.06332,-2.48497 -2.186772,-2.48497 -2.186772,-7.1567 0,-3.77716 1.391582,-8.2501 l 5.36753,-17.29537 q 0.795189,-2.68376 0.795189,-4.47294 0,-2.48497 -1.987974,-2.48497 -1.391581,0 -2.683764,1.09339 -1.292183,0.99398 -3.08136,3.08136 z" /><path
     id="path2674"
     style="fill:url(#linearGradient1438);fill-opacity:1;stroke-width:2.48498"
     d="m 129.107,226.91156 q 0.79519,-2.98196 0.79519,-4.37354 0,-2.58437 -2.08737,-2.58437 -1.39158,0 -2.68377,1.09339 -1.29218,0.99398 -3.08136,3.08136 h -0.89459 q 5.46693,-6.85851 9.93987,-10.83446 4.57234,-4.07535 9.34348,-4.07535 3.18076,0 5.16873,2.28617 1.98798,2.18677 1.98798,6.75911 0,4.07535 -1.59038,9.54228 l -5.66573,19.68094 h 0.89459 l 2.08737,-5.36753 q 12.82244,-32.90097 25.74427,-32.90097 3.47895,0 5.56632,2.38557 2.08738,2.38557 2.08738,6.95791 0,4.17474 -1.49098,8.74708 l -6.36152,20.37674 0.29819,-0.1988 h 0.89459 l 2.08738,-5.36753 q 12.82243,-32.90097 25.74426,-32.90097 3.57835,0 5.66572,2.38557 2.18678,2.38557 2.18678,7.05731 0,4.07534 -1.49099,8.64768 l -4.77113,15.10861 q -0.89459,2.68376 -0.89459,4.96993 0,3.47896 2.38557,3.47896 1.29218,0 2.28617,-0.89459 1.09338,-0.89459 2.78316,-2.78317 h 0.89459 q -0.59639,0.6958 -4.27414,5.26814 -3.67776,4.47294 -7.45491,7.0573 -3.77715,2.58437 -7.0573,2.58437 -3.28016,0 -5.56633,-2.48497 -2.28617,-2.48497 -2.28617,-7.3555 0,-4.07535 1.68978,-9.14468 l 5.46693,-16.69898 q 0.49699,-1.68978 0.49699,-2.38557 0,-1.09339 -0.49699,-1.59038 -0.497,-0.49699 -1.29219,-0.49699 -2.58436,0 -5.66572,4.87053 -2.98196,4.87054 -7.45491,16.40079 l -6.85851,17.69296 h -18.68695 l 11.23205,-34.49134 q 0.3976,-1.19279 0.3976,-2.28617 0,-1.09339 -0.497,-1.59038 -0.49699,-0.59639 -1.29218,-0.59639 -2.58437,0 -5.66573,4.87053 -2.98196,4.87054 -7.4549,16.40079 l -6.85851,17.69296 h -17.99116 z" /><path
     id="path2676"
     style="fill:url(#linearGradient1438);fill-opacity:1;stroke-width:2.48498"
     d="m 225.51908,192.32081 -5.46693,-1.68977 v -0.497 l 25.44607,-7.3555 h 0.0994 l -18.68695,64.31096 h 0.89459 l 2.18677,-4.67174 q 1.19278,-2.78317 3.77715,-8.0513 4.47294,-9.74107 7.05731,-14.61161 2.58436,-4.87053 5.36753,-7.6537 2.88256,-2.88256 6.26212,-2.88256 2.98196,0 5.56632,1.78918 2.68377,1.68978 4.27415,5.06933 1.68977,3.28016 1.68977,7.6537 0,8.54829 -6.46091,17.59357 -6.46092,8.94588 -15.6056,14.90981 -9.04528,5.86452 -16.20198,5.86452 -2.88257,0 -5.76513,-0.99399 -2.88256,-0.89459 -5.76512,-2.18677 -2.78317,-1.29218 -3.67776,-1.68978 l -4.47294,4.87054 h -0.49699 z m -0.79519,64.31096 q 2.88256,3.47895 5.66572,3.47895 3.37956,0 6.95791,-4.77113 3.67775,-4.87054 6.06332,-12.12664 2.48497,-7.25611 2.48497,-13.91582 0,-6.26212 -2.48497,-6.26212 -1.98797,0 -4.57234,4.27414 -2.48496,4.27415 -7.75309,15.6056 z" /><path
     id="path2678"
     style="fill:url(#linearGradient1438);fill-opacity:1;stroke-width:2.48498"
     d="m 240.24251,274.22534 q 0,-2.48497 1.68978,-4.37354 1.68978,-1.78918 4.27414,-2.88257 1.19279,4.96994 3.28016,8.54829 2.08737,3.67775 5.06934,3.67775 1.98797,0 3.67775,-2.08737 1.59038,-1.98797 3.18076,-7.5543 l 16.79838,-57.94944 h -10.03927 v -1.19278 h 10.43686 q 2.78316,-8.0513 7.15671,-14.01522 4.37354,-6.06332 9.14468,-9.14468 4.77113,-3.18076 9.04528,-3.18076 3.28015,0 5.16873,1.88858 1.88857,1.78917 1.88857,4.57234 0,2.88256 -1.78917,5.96392 -7.15671,-1.19279 -12.92183,-1.19279 -11.43085,0 -11.43085,6.26212 0,2.38557 1.39158,4.87054 1.39158,2.48497 3.18076,3.97595 h 16.50018 v 1.19278 h -10.53626 l -10.13867,35.38594 q -2.98196,10.43686 -8.25009,17.99116 -5.26813,7.6537 -12.12664,11.72905 -6.85851,4.07534 -14.51221,4.07534 -5.06933,0 -7.5543,-1.88857 -2.58437,-1.78918 -2.58437,-4.67174 z" /><path
     id="path2680"
     style="fill:url(#linearGradient1438);fill-opacity:1;stroke-width:2.48498"
     d="m 348.37121,227.80615 q 0,8.84648 -4.77114,16.79838 -4.77114,7.8525 -12.52423,12.72303 -7.6537,4.77114 -15.9038,4.77114 -8.25009,0 -13.51822,-4.96994 -5.26813,-4.96993 -5.26813,-13.41882 0,-9.34348 4.67174,-17.29537 4.67174,-7.9519 12.32544,-12.52424 7.6537,-4.67174 16.10259,-4.67174 8.25009,0 13.51822,4.96994 5.36753,4.87053 5.36753,13.61762 z m -34.88894,20.17793 q 0,5.86453 1.19278,9.34348 1.19279,3.47896 3.47896,3.47896 3.08136,0 6.06332,-6.46092 3.08136,-6.46091 5.06933,-15.6056 1.98797,-9.24407 1.98797,-16.50018 0,-5.36753 -1.19278,-8.54829 -1.09339,-3.18076 -2.98196,-3.18076 -3.18076,0 -6.36152,6.16272 -3.18076,6.16272 -5.26813,15.10861 -1.98797,8.84648 -1.98797,16.20198 z" /><path
     id="path2682"
     style="fill:url(#linearGradient1438);fill-opacity:1;stroke-width:2.48498"
     d="m 353.92512,225.12238 q 0,-4.17474 3.18076,-7.85249 3.28016,-3.67776 8.64769,-5.86453 5.46693,-2.18677 11.62965,-2.18677 6.06332,0 9.74107,2.28617 3.77715,2.28617 3.77715,6.16272 0,2.28617 -1.29219,4.07535 -1.19278,1.78917 -3.28015,2.78316 -5.96392,-13.71702 -13.51823,-13.71702 -2.08737,0 -3.28015,1.09339 -1.09339,0.99398 -1.09339,2.68376 0,1.78918 1.59038,4.17475 1.59038,2.28617 5.96392,7.3555 5.56633,6.36152 7.6537,10.13867 2.08738,3.77715 2.08738,7.5543 0,4.87053 -3.37956,9.14468 -3.28016,4.17474 -8.94588,6.65971 -5.66573,2.48497 -12.22604,2.48497 -6.36152,0 -9.93987,-2.28617 -3.47896,-2.28617 -3.47896,-6.26212 0,-4.77114 5.16874,-7.5543 2.88256,6.65971 6.9579,10.33746 4.17475,3.67776 7.9519,3.67776 2.08737,0 3.18076,-1.09339 1.19278,-1.09339 1.19278,-2.98196 0,-2.18677 -1.78917,-5.06933 -1.78918,-2.88257 -6.65972,-8.64769 -5.66572,-6.65971 -7.75309,-10.33747 -2.08738,-3.67775 -2.08738,-6.75911 z" /><path
     id="path2684"
     style="fill:url(#linearGradient1438);fill-opacity:1;stroke-width:2.48498"
     d="m 394.30583,225.12238 q 0,-4.17474 3.18076,-7.85249 3.28015,-3.67776 8.64768,-5.86453 5.46693,-2.18677 11.62965,-2.18677 6.06332,0 9.74107,2.28617 3.77715,2.28617 3.77715,6.16272 0,2.28617 -1.29218,4.07535 -1.19278,1.78917 -3.28016,2.78316 -5.96392,-13.71702 -13.51822,-13.71702 -2.08737,0 -3.28016,1.09339 -1.09338,0.99398 -1.09338,2.68376 0,1.78918 1.59038,4.17475 1.59038,2.28617 5.96392,7.3555 5.56633,6.36152 7.6537,10.13867 2.08737,3.77715 2.08737,7.5543 0,4.87053 -3.37955,9.14468 -3.28016,4.17474 -8.94589,6.65971 -5.66572,2.48497 -12.22604,2.48497 -6.36151,0 -9.93987,-2.28617 -3.47895,-2.28617 -3.47895,-6.26212 0,-4.77114 5.16873,-7.5543 2.88256,6.65971 6.95791,10.33746 4.17475,3.67776 7.9519,3.67776 2.08737,0 3.18076,-1.09339 1.19278,-1.09339 1.19278,-2.98196 0,-2.18677 -1.78918,-5.06933 -1.78917,-2.88257 -6.65971,-8.64769 -5.66573,-6.65971 -7.7531,-10.33747 -2.08737,-3.67775 -2.08737,-6.75911 z" /></g></svg>
